<svg xmlns="http://www.w3.org/2000/svg" x="0px" y="0px" viewBox="0 0 1000 1000" xml:space="preserve">
  <path d="M609.7,22.8c110.6,23.8,201.6,80.4,273.1,169.7C954.2,281.8,990,384.3,990,500c0,115.7-35.7,218.2-107.2,307.5c-71.5,89.3-162.5,145.9-273.1,169.7V865c80-23.8,145-68.9,195.2-135.3c50.2-66.3,75.3-142.9,75.3-229.7c0-86.8-25.1-163.4-75.3-229.7S689.7,158.9,609.7,135V22.8L609.7,22.8z M745,500c0,102.1-45.1,175.2-135.3,219.5v-439C699.9,324.8,745,398,745,500L745,500z M10,336.7h216.9L500,63.6v872.8L226.9,663.4H10V336.7L10,336.7z"/>
</svg>